<svg xmlns="http://www.w3.org/2000/svg" viewBox="0 0 184.38 37.67"><defs><style>.cls-1{fill:#8bffaa;}.cls-2{fill:#231f20;}.cls-3{fill:#1500a2;}</style></defs><g id="Layer_2" data-name="Layer 2"><g id="Layer_1-2" data-name="Layer 1"><path class="cls-1" d="M31.11,10.49a5.93,5.93,0,0,0,.69-2.95,6.38,6.38,0,0,0-.37-2.19,4.2,4.2,0,0,0-1.21-1.78A5.91,5.91,0,0,0,28,2.37a11.23,11.23,0,0,0-3.43-.45H16.92V19.06h5.33v-5.5h2l2.85,5.5h5.78l-3.69-6.58A5.41,5.41,0,0,0,31.11,10.49Z"/><path class="cls-1" d="M49.25,3.87A7.41,7.41,0,0,0,46.46,2.1a10.94,10.94,0,0,0-3.82-.61,11,11,0,0,0-3.92.64A7.59,7.59,0,0,0,35.88,4a7.71,7.71,0,0,0-1.72,2.86,11.54,11.54,0,0,0-.57,3.75,11.54,11.54,0,0,0,.57,3.75,7.37,7.37,0,0,0,1.71,2.8,7.57,7.57,0,0,0,2.79,1.77,11,11,0,0,0,3.83.61,10.94,10.94,0,0,0,3.91-.64A7.45,7.45,0,0,0,49.23,17,7.72,7.72,0,0,0,51,14.17a11.45,11.45,0,0,0,.58-3.78A11.37,11.37,0,0,0,51,6.66,7.28,7.28,0,0,0,49.25,3.87ZM42.56,14.81q-3.11,0-3.11-4.32t3.11-4.32q3.12,0,3.12,4.32T42.56,14.81Z"/><path class="cls-1" d="M62.47,13.18h.06l-.42,1.17,2.76-.17v.37a6.16,6.16,0,0,1-2.27.38,3.39,3.39,0,0,1-2.83-1.06,5.57,5.57,0,0,1-.83-3.45,6,6,0,0,1,.72-3.34,2.64,2.64,0,0,1,2.34-1,2.53,2.53,0,0,1,1.48.38,2.19,2.19,0,0,1,.76,1.32l5.69-.45a7,7,0,0,0-.73-2.23,5.78,5.78,0,0,0-1.5-1.85A7.22,7.22,0,0,0,65.33,2a10.46,10.46,0,0,0-3.28-.47,10.89,10.89,0,0,0-3.8.62,7.68,7.68,0,0,0-2.8,1.8,7.58,7.58,0,0,0-1.74,2.87,11.64,11.64,0,0,0-.58,3.81,11.46,11.46,0,0,0,.56,3.68,7.4,7.4,0,0,0,1.69,2.81,7.62,7.62,0,0,0,2.86,1.79,12,12,0,0,0,4,.62,14.63,14.63,0,0,0,2.44-.19,14.43,14.43,0,0,0,2.13-.52,12.84,12.84,0,0,0,1.79-.73,10.74,10.74,0,0,0,1.44-.86V9H62.47Z"/><path class="cls-1" d="M87,10.49a5.93,5.93,0,0,0,.69-2.95,6.62,6.62,0,0,0-.37-2.19,4.2,4.2,0,0,0-1.21-1.78,5.91,5.91,0,0,0-2.23-1.2,11.28,11.28,0,0,0-3.43-.45H72.82V19.06h5.33v-5.5h2L83,19.06h5.78l-3.69-6.58A5.41,5.41,0,0,0,87,10.49Z"/><polygon class="cls-1" points="96.14 12.51 103.32 12.51 103.32 8.31 96.14 8.31 96.14 6.12 103.82 6.12 103.82 1.92 90.59 1.92 90.59 19.06 103.89 19.06 104.32 14.86 96.14 14.86 96.14 12.51"/><path class="cls-1" d="M120.58,10.27a6.24,6.24,0,0,0-1.84-1.11,11.42,11.42,0,0,0-1.33-.46l-.12-1.53,4.3-.38A6,6,0,0,0,121,4.73,5.06,5.06,0,0,0,119.63,3a6.47,6.47,0,0,0-2.29-1.14,11.75,11.75,0,0,0-3.28-.41,12.74,12.74,0,0,0-3.15.36,6.83,6.83,0,0,0-2.39,1.08A4.92,4.92,0,0,0,107,4.69a5.2,5.2,0,0,0-.54,2.42,4.34,4.34,0,0,0,1.41,3.38,7.91,7.91,0,0,0,3.23,1.57L111,13.37h-4.92a7.4,7.4,0,0,0,.61,2.56,5.18,5.18,0,0,0,1.48,1.93,6.76,6.76,0,0,0,2.43,1.21,12.42,12.42,0,0,0,3.43.42A9.67,9.67,0,0,0,119.93,18a5.11,5.11,0,0,0,2-4.31,5.13,5.13,0,0,0-.33-1.91A4,4,0,0,0,120.58,10.27Z"/><path class="cls-1" d="M138,10.27a6.24,6.24,0,0,0-1.84-1.11c-.27-.11-.56-.21-.86-.31l-.15-1.72L139,6.79a6,6,0,0,0-.57-2.06A5.06,5.06,0,0,0,137.05,3a6.47,6.47,0,0,0-2.29-1.14,11.75,11.75,0,0,0-3.28-.41,12.74,12.74,0,0,0-3.15.36,6.83,6.83,0,0,0-2.39,1.08,4.92,4.92,0,0,0-1.52,1.76,5.2,5.2,0,0,0-.54,2.42,4.34,4.34,0,0,0,1.41,3.38,9.4,9.4,0,0,0,4.52,1.87l.17,0V14.9l-.1-.07a2.18,2.18,0,0,1-.79-1.46h-5.58a7.4,7.4,0,0,0,.61,2.56,5.18,5.18,0,0,0,1.48,1.93A6.76,6.76,0,0,0,128,19.07a12.42,12.42,0,0,0,3.43.42A9.67,9.67,0,0,0,137.35,18a5.11,5.11,0,0,0,2-4.31,5.13,5.13,0,0,0-.33-1.91A4,4,0,0,0,138,10.27Z"/><rect class="cls-1" x="141.45" y="1.92" width="5.66" height="17.14"/><polygon class="cls-1" points="158.1 13.27 155.18 1.92 149.1 1.92 154.46 19.06 161.59 19.06 167 1.92 161.01 1.92 158.1 13.27"/><polygon class="cls-1" points="174.55 14.86 174.55 12.51 181.72 12.51 181.72 8.31 174.55 8.31 174.55 6.12 182.22 6.12 182.22 1.92 168.99 1.92 168.99 19.06 182.3 19.06 182.72 14.86 174.55 14.86"/><path class="cls-2" d="M33.45,6.05a6,6,0,0,1-.68,3,5.44,5.44,0,0,1-1.94,2l3.69,6.58H28.74l-2.84-5.5h-2v5.5H18.57V.43h7.64a11.19,11.19,0,0,1,3.43.45,6,6,0,0,1,2.24,1.2,4.29,4.29,0,0,1,1.21,1.78A6.62,6.62,0,0,1,33.45,6.05ZM23.91,8.11h1.88a2.77,2.77,0,0,0,1.79-.45,1.7,1.7,0,0,0,.54-1.37,1.69,1.69,0,0,0-.54-1.37,2.77,2.77,0,0,0-1.79-.46H23.91Z"/><path class="cls-2" d="M44.14,18a10.94,10.94,0,0,1-3.82-.61,7.41,7.41,0,0,1-2.79-1.77,7.25,7.25,0,0,1-1.71-2.8,11.53,11.53,0,0,1-.58-3.75,11.53,11.53,0,0,1,.58-3.75,7.45,7.45,0,0,1,1.72-2.86A7.51,7.51,0,0,1,40.38.64a12.3,12.3,0,0,1,7.74,0,7.57,7.57,0,0,1,2.79,1.77,7.53,7.53,0,0,1,1.71,2.79,11.37,11.37,0,0,1,.57,3.73,11.45,11.45,0,0,1-.59,3.78,7.59,7.59,0,0,1-1.72,2.87,7.38,7.38,0,0,1-2.83,1.81A10.94,10.94,0,0,1,44.14,18Zm.08-4.68q3.11,0,3.11-4.32T44.22,4.68Q41.1,4.68,41.1,9T44.22,13.32Z"/><path class="cls-2" d="M64.13,7.54h7.6V15.7a10.6,10.6,0,0,1-1.43.86,12.49,12.49,0,0,1-1.8.73,13.83,13.83,0,0,1-2.13.52,14.55,14.55,0,0,1-2.44.19,12,12,0,0,1-4-.62A7.58,7.58,0,0,1,57,15.59a7.42,7.42,0,0,1-1.7-2.81,11.46,11.46,0,0,1-.56-3.68,11.63,11.63,0,0,1,.59-3.81A7.69,7.69,0,0,1,57.1,2.42,7.76,7.76,0,0,1,59.9.62,11,11,0,0,1,63.71,0,10.44,10.44,0,0,1,67,.47a7.22,7.22,0,0,1,2.37,1.26,6,6,0,0,1,1.51,1.85,7.2,7.2,0,0,1,.72,2.23l-5.68.45a2.19,2.19,0,0,0-.76-1.32,2.55,2.55,0,0,0-1.48-.38,2.66,2.66,0,0,0-2.35,1,6,6,0,0,0-.72,3.34,5.56,5.56,0,0,0,.84,3.45,3.36,3.36,0,0,0,2.82,1.06,6.16,6.16,0,0,0,2.27-.38V11.69H64.13Z"/><path class="cls-2" d="M89.35,6.05a5.93,5.93,0,0,1-.69,3,5.33,5.33,0,0,1-1.93,2l3.69,6.58H84.64l-2.84-5.5h-2v5.5H74.47V.43h7.64a11.23,11.23,0,0,1,3.43.45,6,6,0,0,1,2.24,1.2A4.29,4.29,0,0,1,89,3.86,6.62,6.62,0,0,1,89.35,6.05ZM79.8,8.11h1.89a2.77,2.77,0,0,0,1.79-.45A1.7,1.7,0,0,0,84,6.29a1.69,1.69,0,0,0-.54-1.37,2.77,2.77,0,0,0-1.79-.46H79.8Z"/><path class="cls-2" d="M92.24.43h13.23v4.2H97.8V6.82H105V11H97.8v2.35H106l-.42,4.2H92.24Z"/><path class="cls-2" d="M113.32,11.88a2.18,2.18,0,0,0,.79,1.46,3,3,0,0,0,1.93.51,2.76,2.76,0,0,0,1.53-.33,1,1,0,0,0,.49-.94,1,1,0,0,0-.34-.77,3,3,0,0,0-1.26-.48l-2.41-.46A9.4,9.4,0,0,1,109.52,9a4.33,4.33,0,0,1-1.4-3.38,5.2,5.2,0,0,1,.53-2.42,5,5,0,0,1,1.52-1.76A6.91,6.91,0,0,1,112.56.36,12.77,12.77,0,0,1,115.72,0,11.67,11.67,0,0,1,119,.41a6.52,6.52,0,0,1,2.3,1.14,5.15,5.15,0,0,1,1.38,1.69,5.8,5.8,0,0,1,.57,2.06l-5.51.48A2,2,0,0,0,117,4.5a2.6,2.6,0,0,0-1.46-.35,2.72,2.72,0,0,0-1.47.31,1,1,0,0,0-.45.8.81.81,0,0,0,.34.67,3.25,3.25,0,0,0,1.28.45l2.4.48a16.33,16.33,0,0,1,2.75.81,6.24,6.24,0,0,1,1.84,1.11,4,4,0,0,1,1,1.48,5.35,5.35,0,0,1,.32,1.91,5.12,5.12,0,0,1-2,4.31,9.71,9.71,0,0,1-5.9,1.52,12.53,12.53,0,0,1-3.43-.42,6.76,6.76,0,0,1-2.43-1.21,5.29,5.29,0,0,1-1.48-1.93,7.63,7.63,0,0,1-.61-2.56Z"/><path class="cls-2" d="M130.74,11.88a2.18,2.18,0,0,0,.79,1.46,3,3,0,0,0,1.93.51,2.76,2.76,0,0,0,1.53-.33,1,1,0,0,0,.49-.94,1,1,0,0,0-.34-.77,3,3,0,0,0-1.26-.48l-2.41-.46A9.4,9.4,0,0,1,126.94,9a4.33,4.33,0,0,1-1.4-3.38,5.2,5.2,0,0,1,.53-2.42,5,5,0,0,1,1.52-1.76A6.91,6.91,0,0,1,130,.36,12.77,12.77,0,0,1,133.14,0a11.67,11.67,0,0,1,3.27.41,6.52,6.52,0,0,1,2.3,1.14,5.15,5.15,0,0,1,1.38,1.69,5.8,5.8,0,0,1,.57,2.06l-5.51.48a2,2,0,0,0-.73-1.28A2.6,2.6,0,0,0,133,4.15a2.72,2.72,0,0,0-1.47.31,1,1,0,0,0-.45.8.81.81,0,0,0,.34.67,3.25,3.25,0,0,0,1.28.45l2.39.48a16.19,16.19,0,0,1,2.76.81,6.24,6.24,0,0,1,1.84,1.11,4,4,0,0,1,1,1.48,5.35,5.35,0,0,1,.32,1.91,5.12,5.12,0,0,1-2,4.31,9.71,9.71,0,0,1-5.9,1.52,12.53,12.53,0,0,1-3.43-.42,6.76,6.76,0,0,1-2.43-1.21,5.29,5.29,0,0,1-1.48-1.93,7.63,7.63,0,0,1-.61-2.56Z"/><path class="cls-2" d="M143.1.43h5.66V17.57H143.1Z"/><path class="cls-2" d="M156.84.43l2.91,11.35L162.67.43h6l-5.41,17.14h-7.13L150.76.43Z"/><path class="cls-2" d="M170.64.43h13.24v4.2H176.2V6.82h7.18V11H176.2v2.35h8.18l-.43,4.2H170.64Z"/><path class="cls-2" d="M3,26.51H1.65V25.7H3V23.3H4v2.4H6.44v.81H4V32.2a2.07,2.07,0,0,0,.27,1.09,1,1,0,0,0,.94.45,3.24,3.24,0,0,0,.75-.07,3.49,3.49,0,0,0,.54-.15l.2.79a4.64,4.64,0,0,1-.62.19,4.15,4.15,0,0,1-.95.08,2.26,2.26,0,0,1-1.17-.25,1.62,1.62,0,0,1-.63-.67,2.51,2.51,0,0,1-.26-.95c0-.36,0-.74,0-1.13Z"/><path class="cls-2" d="M19.21,33.17a4.41,4.41,0,0,1-.53.53,3.45,3.45,0,0,1-.69.46,3.74,3.74,0,0,1-.85.32,4.08,4.08,0,0,1-1,.12,3.43,3.43,0,0,1-2.2-.66,2.35,2.35,0,0,1-.82-2,2.51,2.51,0,0,1,.37-1.43,2.56,2.56,0,0,1,1-.88,4.8,4.8,0,0,1,1.4-.45,13.85,13.85,0,0,1,1.63-.16L19.17,29v-.27a2.89,2.89,0,0,0-.49-1.87,2.27,2.27,0,0,0-1.78-.59,4.59,4.59,0,0,0-1.06.1,2.17,2.17,0,0,0-.72.3,1.61,1.61,0,0,0-.45.45,2,2,0,0,0-.26.58l-.89-.13c.31-1.42,1.45-2.13,3.41-2.13a4.6,4.6,0,0,1,1.54.22A2.3,2.3,0,0,1,20,27.3a5.19,5.19,0,0,1,.17,1.37V34.4h-1Zm0-3.4-1.6.07A8.7,8.7,0,0,0,16,30a3.17,3.17,0,0,0-1.06.4,1.63,1.63,0,0,0-.59.64,2.14,2.14,0,0,0-.17.91,1.82,1.82,0,0,0,.44,1.27,2.09,2.09,0,0,0,1.57.48,5.08,5.08,0,0,0,1.1-.12,2.21,2.21,0,0,0,.9-.42,2.76,2.76,0,0,0,.5-.42,1.76,1.76,0,0,0,.32-.45,1.55,1.55,0,0,0,.18-.55,4.73,4.73,0,0,0,.05-.71Z"/><path class="cls-2" d="M28.18,22.34h1V34.4h-1Z"/><path class="cls-2" d="M44.42,32.12A3,3,0,0,1,43.34,34a3.92,3.92,0,0,1-2.5.71,3.61,3.61,0,0,1-2.91-1.21,4.88,4.88,0,0,1-1-3.32,6.52,6.52,0,0,1,.29-2A4.32,4.32,0,0,1,38,26.64a3.45,3.45,0,0,1,1.25-.9,3.91,3.91,0,0,1,1.58-.31,4,4,0,0,1,1.72.33,3.16,3.16,0,0,1,1.16.9A3.57,3.57,0,0,1,44.37,28a6.82,6.82,0,0,1,.2,1.67v.62H37.88a5.26,5.26,0,0,0,.19,1.4,3.24,3.24,0,0,0,.56,1.13,2.58,2.58,0,0,0,.93.76,2.9,2.9,0,0,0,1.28.28A3.93,3.93,0,0,0,42,33.73a2,2,0,0,0,.76-.36,1.82,1.82,0,0,0,.49-.55,2.91,2.91,0,0,0,.27-.7Zm-.86-2.67a5.27,5.27,0,0,0-.15-1.3,3,3,0,0,0-.48-1,2.07,2.07,0,0,0-.84-.67,3,3,0,0,0-1.25-.23,2.69,2.69,0,0,0-2,.79,4,4,0,0,0-.91,2.43Z"/><path class="cls-2" d="M52.2,25.7h1v1.42a4.55,4.55,0,0,1,1.51-1.29,3.78,3.78,0,0,1,1.72-.4,2.73,2.73,0,0,1,2.19.83,3.46,3.46,0,0,1,.71,2.35V34.4h-1V28.88a3.09,3.09,0,0,0-.49-2,1.87,1.87,0,0,0-1.55-.6,3.27,3.27,0,0,0-1.07.19,2.83,2.83,0,0,0-1,.62,3.25,3.25,0,0,0-.76.9,2.69,2.69,0,0,0-.26,1.28v5.1h-1Z"/><path class="cls-2" d="M67.71,26.51H66.35V25.7h1.36V23.3h1v2.4h2.47v.81H68.68V32.2A2.08,2.08,0,0,0,69,33.29a1,1,0,0,0,.94.45,3.15,3.15,0,0,0,.74-.07,3,3,0,0,0,.54-.15l.21.79a4.64,4.64,0,0,1-.62.19,4.15,4.15,0,0,1-1,.08,2.26,2.26,0,0,1-1.17-.25,1.62,1.62,0,0,1-.63-.67,2.51,2.51,0,0,1-.26-.95,10.33,10.33,0,0,1-.05-1.13Z"/><path class="cls-2" d="M87.73,25.7h1V27A4.79,4.79,0,0,1,90,25.85a3.36,3.36,0,0,1,1.73-.42,3.73,3.73,0,0,1,1.66.35,3.26,3.26,0,0,1,1.16.95,4.39,4.39,0,0,1,.7,1.44A6.81,6.81,0,0,1,95.48,30a6.68,6.68,0,0,1-.27,2,4.45,4.45,0,0,1-.79,1.48,3.58,3.58,0,0,1-1.22.93,4,4,0,0,1-1.62.32,3.85,3.85,0,0,1-1.53-.32,3.57,3.57,0,0,1-1.34-1.13v4.45h-1Zm1,4.7a7.36,7.36,0,0,0,.06,1,2.89,2.89,0,0,0,.2.77,3,3,0,0,0,.36.6,3.18,3.18,0,0,0,.54.48,2.76,2.76,0,0,0,.8.44,2.94,2.94,0,0,0,.93.13,3,3,0,0,0,1.14-.21,2.34,2.34,0,0,0,.91-.66,3.59,3.59,0,0,0,.6-1.19A6.58,6.58,0,0,0,94.44,30a5.54,5.54,0,0,0-.25-1.77,3.26,3.26,0,0,0-.63-1.14,2.16,2.16,0,0,0-.88-.61,3,3,0,0,0-1-.17,3.93,3.93,0,0,0-1,.11,2.62,2.62,0,0,0-.84.44A3,3,0,0,0,89,27.94a3.81,3.81,0,0,0-.33,1.7Z"/><path class="cls-2" d="M103.15,22.34h1.11v1.47h-1.11Zm.07,3.36h1v8.7h-1Z"/><path class="cls-2" d="M112.2,25.7h1V27a4.65,4.65,0,0,1,1.3-1.15,3.32,3.32,0,0,1,1.72-.42,3.77,3.77,0,0,1,1.67.35,3.35,3.35,0,0,1,1.16.95,4.19,4.19,0,0,1,.69,1.44,7.11,7.11,0,0,1,0,3.77,4.26,4.26,0,0,1-.78,1.48,3.52,3.52,0,0,1-1.23.93,4,4,0,0,1-1.61.32,3.85,3.85,0,0,1-1.53-.32,3.43,3.43,0,0,1-1.34-1.13v4.45h-1Zm1,4.7a7.36,7.36,0,0,0,.06,1,2.56,2.56,0,0,0,.2.77,2.28,2.28,0,0,0,.36.6,3.18,3.18,0,0,0,.54.48,2.71,2.71,0,0,0,.79.44,3.31,3.31,0,0,0,2.08-.08,2.24,2.24,0,0,0,.9-.66,3.25,3.25,0,0,0,.6-1.19A6.21,6.21,0,0,0,118.9,30a5.56,5.56,0,0,0-.24-1.77,3.43,3.43,0,0,0-.63-1.14,2.23,2.23,0,0,0-.88-.61,3,3,0,0,0-1-.17,3.93,3.93,0,0,0-1,.11,2.62,2.62,0,0,0-.84.44,2.91,2.91,0,0,0-.92,1.11,3.81,3.81,0,0,0-.33,1.7Z"/><path class="cls-2" d="M134.9,32.12A3,3,0,0,1,133.82,34a3.92,3.92,0,0,1-2.5.71,3.63,3.63,0,0,1-2.92-1.21,4.93,4.93,0,0,1-1-3.32,6.22,6.22,0,0,1,.3-2,4.17,4.17,0,0,1,.83-1.48,3.36,3.36,0,0,1,1.25-.9,3.87,3.87,0,0,1,1.58-.31,4.09,4.09,0,0,1,1.72.33,3,3,0,0,1,1.15.9,3.58,3.58,0,0,1,.66,1.34,6.82,6.82,0,0,1,.2,1.67v.62h-6.69a4.88,4.88,0,0,0,.19,1.4,3.4,3.4,0,0,0,.55,1.13,2.76,2.76,0,0,0,.93.76,2.92,2.92,0,0,0,1.29.28,4,4,0,0,0,1.11-.13,2.06,2.06,0,0,0,.76-.36,1.92,1.92,0,0,0,.48-.55,2.93,2.93,0,0,0,.28-.7ZM134,29.45a5.27,5.27,0,0,0-.15-1.3,3,3,0,0,0-.47-1,2.1,2.1,0,0,0-.85-.67,2.92,2.92,0,0,0-1.24-.23,2.67,2.67,0,0,0-2,.79,3.93,3.93,0,0,0-.91,2.43Z"/><path class="cls-2" d="M142.73,22.34h1V34.4h-1Z"/><path class="cls-2" d="M151.7,22.34h1.11v1.47H151.7Zm.06,3.36h1v8.7h-1Z"/><path class="cls-2" d="M160.75,25.7h1v1.42a4.37,4.37,0,0,1,1.51-1.29,3.71,3.71,0,0,1,1.71-.4,2.76,2.76,0,0,1,2.2.83,3.51,3.51,0,0,1,.71,2.35V34.4h-1V28.88a3.16,3.16,0,0,0-.49-2,1.91,1.91,0,0,0-1.56-.6,3.32,3.32,0,0,0-1.07.19,2.83,2.83,0,0,0-1,.62,3.25,3.25,0,0,0-.76.9,2.7,2.7,0,0,0-.25,1.28v5.1h-1Z"/><path class="cls-2" d="M183,32.12A2.92,2.92,0,0,1,181.94,34a3.92,3.92,0,0,1-2.5.71,3.61,3.61,0,0,1-2.91-1.21,4.93,4.93,0,0,1-1-3.32,6.52,6.52,0,0,1,.29-2,4.32,4.32,0,0,1,.83-1.48,3.45,3.45,0,0,1,1.25-.9,3.91,3.91,0,0,1,1.58-.31,4,4,0,0,1,1.72.33,3.08,3.08,0,0,1,1.16.9A3.57,3.57,0,0,1,183,28a6.37,6.37,0,0,1,.2,1.67v.62h-6.68a5.26,5.26,0,0,0,.18,1.4,3.42,3.42,0,0,0,.56,1.13,2.76,2.76,0,0,0,.93.76,2.9,2.9,0,0,0,1.28.28,4.05,4.05,0,0,0,1.12-.13,2.14,2.14,0,0,0,.76-.36,1.92,1.92,0,0,0,.48-.55,2.93,2.93,0,0,0,.28-.7Zm-.86-2.67a5.27,5.27,0,0,0-.15-1.3,2.83,2.83,0,0,0-.48-1,2.07,2.07,0,0,0-.84-.67,3,3,0,0,0-1.25-.23,2.69,2.69,0,0,0-2,.79,4,4,0,0,0-.91,2.43Z"/><polygon class="cls-1" points="1.71 15.07 0 16.78 0 19.02 5.87 19.02 5.87 17.52 1.71 17.52 1.71 15.07"/><path class="cls-1" d="M7.58,12.12v1.5h1a5.32,5.32,0,0,0,4.57-2.18,6,6,0,0,1-2.86.68Z"/><polygon class="cls-1" points="1.71 2.07 0 2.07 0 12.91 1.71 11.23 1.71 2.07"/><path class="cls-3" d="M10.26.3H1.71V11.23L7.63,5.31,5.82,3.51h5.53V9L9.55,7.23,1.71,15.07v2.45H7.58v-5.4h2.68a6,6,0,0,0,2.86-.68,5.51,5.51,0,0,0,2.79-5.21C15.91,2.78,13.68.3,10.26.3Z"/></g></g></svg>