<?xml version="1.0" encoding="UTF-8"?>
<svg width="907px" height="1041px" viewBox="0 0 907 1041" version="1.1" xmlns="http://www.w3.org/2000/svg" xmlns:xlink="http://www.w3.org/1999/xlink">
    <!-- Generator: Sketch 64 (93537) - https://sketch.com -->
    <title>Group 4</title>
    <desc>Created with Sketch.</desc>
    <g id="Page-1" stroke="none" stroke-width="1" fill="none" fill-rule="evenodd">
        <g id="Desktop-Copy" transform="translate(0.000000, -221.000000)">
            <g id="Group-4" transform="translate(0.000000, 221.000000)">
                <path d="M803.604196,94.0896657 C764.726988,118.788685 662.541048,127.839394 601.188869,162.757081 C539.83669,197.674768 530.038306,359.028936 504.591406,414.997235 C479.144506,470.965533 395.442326,517.945623 340.440156,548.996154 C285.437986,580.046685 187.845761,629.448631 107.782771,652.831255 C54.4074447,668.419671 18.4798543,680.047181 0,687.713786 L0,1041 C46.8995596,1027.1824 87.0396097,1014.1799 120.42015,1001.9925 C170.490961,983.711399 333.106013,867.794365 401.3237,808.048753 C469.541386,748.303141 561.57356,649.979715 588.598199,599.487935 C615.622838,548.996154 634.243283,506.246499 634.243283,414.997235 C634.243283,323.74797 648.192996,222.619879 677.588148,197.674768 C706.983301,172.729657 735.373955,163.807854 756.256404,153.073565 C777.138852,142.339277 824.267678,113.89835 834.27523,101.859134 C844.282782,89.8199186 860.741079,72 846.345686,72 C842.161809,72 810.37576,89.7876339 803.604196,94.0896657 Z" id="Path-2" fill="#F7F7F7"></path>
                <g id="noun_capitol_1853277" transform="translate(794.000000, 0.000000)" fill="#E6E6E7">
                    <g id="Group">
                        <path d="M71,31 C71,23 69.2132701,16.1428571 60.8293839,13.4285714 C60.8293839,10.8571429 60.4170616,7.85714286 57.5308057,7 L57.5308057,3.57142857 C59.042654,2.57142857 58.3554502,0 56.4312796,0 C54.507109,0 53.8199052,2.57142857 55.4691943,3.57142857 L55.4691943,7 C52.5829384,7.85714286 52.1706161,10.8571429 52.1706161,13.4285714 C43.7867299,16.1428571 42,23 42,31 C49.5592417,26.4285714 63.3033175,26.4285714 71,31 Z M56.5,10 C57.8846154,10 58,11.875 58,13 C57.0769231,12.875 56.0384615,12.875 55,13 C55,11.875 55.2307692,10 56.5,10 Z" id="Shape"></path>
                        <path d="M78.39375,41.6628849 L78.39375,45.9837925 L73.45,43.6142626 L73.45,37.0632091 C67.94125,28.9789303 45.2,28.9789303 39.55,37.0632091 L39.55,43.7536467 L34.7475,46.1231767 L34.7475,41.6628849 L0,41.6628849 L0,47.6564019 L2.96625,47.6564019 L2.96625,74 C38.7025,74 74.43875,74 110.03375,74 L110.03375,47.6564019 L113,47.6564019 L113,41.6628849 L78.39375,41.6628849 Z M15,67 L11,67 L11,48 L15,48 L15,67 Z M26,67 L22,67 L22,48 L26,48 L26,67 Z M57.5666667,39 L74,47 L40,47 L57.5666667,39 Z M44,70 L39,70 L39,51 L44,51 L44,70 Z M54,70 L48,70 L48,51 L54,51 L54,70 Z M65,70 L59,70 L59,51 L65,51 L65,70 Z M75,70 L70,70 L70,51 L75,51 L75,70 Z M91,67 L87,67 L87,48 L91,48 L91,67 Z M102,67 L99,67 L99,48 L102,48 L102,67 Z" id="Shape"></path>
                    </g>
                </g>
            </g>
        </g>
    </g>
</svg>