<?xml version="1.0" encoding="UTF-8"?>
<svg width="25px" height="17px" viewBox="0 0 25 17" version="1.1" xmlns="http://www.w3.org/2000/svg" xmlns:xlink="http://www.w3.org/1999/xlink">
    <!-- Generator: Sketch 64 (93537) - https://sketch.com -->
    <title>noun_Mail_1557081</title>
    <desc>Created with Sketch.</desc>
    <g id="Page-1" stroke="none" stroke-width="1" fill="none" fill-rule="evenodd">
        <g id="Desktop-Copy-3" transform="translate(-926.000000, -2024.000000)" fill="#D8D8D8" fill-rule="nonzero">
            <g id="Group-5" transform="translate(889.000000, 2023.000000)">
                <g id="noun_Mail_1557081" transform="translate(37.000000, 1.000000)">
                    <g id="Group">
                        <path d="M1.875,0.116161321 C1.50645,0.116161321 1.16816562,0.229804717 0.87890625,0.416868868 L11.5820312,10.0094396 C12.1476156,10.5165849 12.8319375,10.5165528 13.3984375,10.0094396 L24.1210938,0.406829245 C23.8328219,0.221657547 23.4915531,0.116161321 23.125,0.116161321 L1.875,0.116161321 Z M0.107421875,1.41922736 C0.04246875,1.61488774 0,1.82190283 0,2.04068962 L0,14.8708623 C0,15.9370509 0.83626875,16.7954226 1.875,16.7954226 L23.125,16.7954226 C24.1637312,16.7954226 25,15.9370509 25,14.8708623 L25,2.04068962 C25,1.82190283 24.9575312,1.61488774 24.8925781,1.41922736 L14.21875,10.9817113 C13.2243188,11.871966 11.7559094,11.8631774 10.7617188,10.9717679 L0.107421875,1.41922736 L0.107421875,1.41922736 Z" id="Shape"></path>
                    </g>
                </g>
            </g>
        </g>
    </g>
</svg>