<svg xmlns="http://www.w3.org/2000/svg" viewBox="0 0 15.91 18.72"><defs><style>.cls-1{fill:#8bffaa;}.cls-2{fill:#1500a2;}</style></defs><g id="Layer_2" data-name="Layer 2"><g id="Layer_1-2" data-name="Layer 1"><polygon class="cls-1" points="1.71 14.77 0 16.49 0 18.72 5.87 18.72 5.87 17.23 1.71 17.23 1.71 14.77"/><path class="cls-1" d="M7.58,11.82v1.5h1a5.33,5.33,0,0,0,4.57-2.17,6.13,6.13,0,0,1-2.86.67Z"/><polygon class="cls-1" points="1.71 1.77 0 1.77 0 12.61 1.71 10.94 1.71 1.77"/><path class="cls-2" d="M10.26,0H1.71V10.93L7.63,5,5.82,3.21h5.53V8.73L9.55,6.94,1.71,14.77v2.46H7.58V11.82h2.68a6.13,6.13,0,0,0,2.86-.67,5.52,5.52,0,0,0,2.79-5.21C15.91,2.49,13.68,0,10.26,0Z"/></g></g></svg>