<?xml version="1.0" encoding="UTF-8"?>
<svg width="601px" height="65px" viewBox="0 0 601 65" version="1.1" xmlns="http://www.w3.org/2000/svg" xmlns:xlink="http://www.w3.org/1999/xlink">
    <!-- Generator: Sketch 64 (93537) - https://sketch.com -->
    <title>Group 3</title>
    <desc>Created with Sketch.</desc>
    <g id="Page-1" stroke="none" stroke-width="1" fill="none" fill-rule="evenodd">
        <g id="Desktop-Copy-3" transform="translate(-227.000000, -237.000000)" fill-rule="nonzero">
            <g id="Group-3" transform="translate(227.000000, 237.000000)">
                <path d="M58.66,53.96 C63.1,53.96 66.61,53 69.19,51.08 C71.77,49.16 73.38,46.32 74.02,42.56 L74.02,42.56 L62.26,42.56 C61.78,44.28 60.52,45.14 58.48,45.14 C57.04,45.14 55.98,44.73 55.3,43.91 C54.62,43.09 54.24,41.76 54.16,39.92 L54.16,39.92 L74.2,39.92 L74.2,36.68 C74.2,31.56 72.81,27.56 70.03,24.68 C67.25,21.8 63.4,20.36 58.48,20.36 C53.36,20.36 49.35,21.88 46.45,24.92 C43.55,27.96 42.1,32.18 42.1,37.58 C42.1,42.9 43.52,46.96 46.36,49.76 C49.2,52.56 53.3,53.96 58.66,53.96 Z M62.56,33.56 L54.22,33.56 C54.42,30.56 55.9,29.06 58.66,29.06 C59.94,29.06 60.89,29.41 61.51,30.11 C62.13,30.81 62.48,31.96 62.56,33.56 L62.56,33.56 Z M94.015,53 L94.015,37.04 C94.015,34.88 94.695,33.36 96.055,32.48 C97.215,31.76 98.735,31.4 100.615,31.4 C101.775,31.4 102.975,31.52 104.215,31.76 L104.215,31.76 L105.595,21.14 C104.595,20.9 103.515,20.78 102.355,20.78 C98.635,20.78 95.735,22.12 93.655,24.8 L93.655,24.8 L93.655,21.32 L81.175,21.32 L81.175,53 L94.015,53 Z M124.63,53.96 C129.51,53.96 133.21,53.06 135.73,51.26 C138.25,49.46 139.51,46.82 139.51,43.34 C139.51,41.38 139.15,39.77 138.43,38.51 C137.71,37.25 136.49,36.19 134.77,35.33 C133.05,34.47 130.59,33.7 127.39,33.02 L127.39,33.02 L124.15,32.36 C123.11,32.16 122.38,31.9 121.96,31.58 C121.54,31.26 121.33,30.84 121.33,30.32 C121.33,29.12 122.19,28.52 123.91,28.52 C125.71,28.52 126.77,29.4 127.09,31.16 L127.09,31.16 L139.09,30.14 C137.93,23.62 132.93,20.36 124.09,20.36 C119.37,20.36 115.73,21.25 113.17,23.03 C110.61,24.81 109.33,27.32 109.33,30.56 C109.33,33.44 110.28,35.67 112.18,37.25 C114.08,38.83 117.21,40.02 121.57,40.82 L121.57,40.82 L124.75,41.42 C125.63,41.58 126.28,41.82 126.7,42.14 C127.12,42.46 127.33,42.9 127.33,43.46 C127.33,44.1 127.1,44.56 126.64,44.84 C126.18,45.12 125.45,45.26 124.45,45.26 C123.33,45.26 122.48,45.06 121.9,44.66 C121.32,44.26 120.95,43.64 120.79,42.8 L120.79,42.8 L108.67,42.8 C109.23,50.24 114.55,53.96 124.63,53.96 Z M160.645,53.96 C166.005,53.96 170.155,52.48 173.095,49.52 C176.035,46.56 177.505,42.4 177.505,37.04 C177.505,31.64 176.085,27.51 173.245,24.65 C170.405,21.79 166.305,20.36 160.945,20.36 C155.585,20.36 151.435,21.84 148.495,24.8 C145.555,27.76 144.085,31.92 144.085,37.28 C144.085,42.68 145.505,46.81 148.345,49.67 C151.185,52.53 155.285,53.96 160.645,53.96 Z M160.765,43.7 C158.205,43.7 156.925,41.52 156.925,37.16 C156.925,32.8 158.205,30.62 160.765,30.62 C162.085,30.62 163.065,31.16 163.705,32.24 C164.345,33.32 164.665,34.96 164.665,37.16 C164.665,39.36 164.345,41 163.705,42.08 C163.065,43.16 162.085,43.7 160.765,43.7 Z M197.32,53 L197.32,34.58 C197.32,33.58 197.5,32.82 197.86,32.3 C198.54,31.34 199.58,30.86 200.98,30.86 C202.66,30.86 203.5,31.9 203.5,33.98 L203.5,33.98 L203.5,53 L216.34,53 L216.34,31.64 C216.34,28.08 215.43,25.31 213.61,23.33 C211.79,21.35 209.24,20.36 205.96,20.36 C202.28,20.36 199.28,21.78 196.96,24.62 L196.96,24.62 L196.96,21.32 L184.48,21.32 L184.48,53 L197.32,53 Z M236.755,53 L236.755,34.58 C236.755,33.58 236.935,32.82 237.295,32.3 C237.975,31.34 239.015,30.86 240.415,30.86 C242.095,30.86 242.935,31.9 242.935,33.98 L242.935,33.98 L242.935,53 L255.775,53 L255.775,31.64 C255.775,28.08 254.865,25.31 253.045,23.33 C251.225,21.35 248.675,20.36 245.395,20.36 C241.715,20.36 238.715,21.78 236.395,24.62 L236.395,24.62 L236.395,21.32 L223.915,21.32 L223.915,53 L236.755,53 Z M279.01,53.96 C283.45,53.96 286.96,53 289.54,51.08 C292.12,49.16 293.73,46.32 294.37,42.56 L294.37,42.56 L282.61,42.56 C282.13,44.28 280.87,45.14 278.83,45.14 C277.39,45.14 276.33,44.73 275.65,43.91 C274.97,43.09 274.59,41.76 274.51,39.92 L274.51,39.92 L294.55,39.92 L294.55,36.68 C294.55,31.56 293.16,27.56 290.38,24.68 C287.6,21.8 283.75,20.36 278.83,20.36 C273.71,20.36 269.7,21.88 266.8,24.92 C263.9,27.96 262.45,32.18 262.45,37.58 C262.45,42.9 263.87,46.96 266.71,49.76 C269.55,52.56 273.65,53.96 279.01,53.96 Z M282.91,33.56 L274.57,33.56 C274.77,30.56 276.25,29.06 279.01,29.06 C280.29,29.06 281.24,29.41 281.86,30.11 C282.48,30.81 282.83,31.96 282.91,33.56 L282.91,33.56 Z M314.365,53 L314.365,10.16 L301.525,10.16 L301.525,53 L314.365,53 Z M349.555,18.26 L349.555,10.16 L336.715,10.16 L336.715,18.26 L349.555,18.26 Z M349.555,53 L349.555,21.32 L336.715,21.32 L336.715,53 L349.555,53 Z M371.89,53.96 C376.77,53.96 380.47,53.06 382.99,51.26 C385.51,49.46 386.77,46.82 386.77,43.34 C386.77,41.38 386.41,39.77 385.69,38.51 C384.97,37.25 383.75,36.19 382.03,35.33 C380.31,34.47 377.85,33.7 374.65,33.02 L374.65,33.02 L371.41,32.36 C370.37,32.16 369.64,31.9 369.22,31.58 C368.8,31.26 368.59,30.84 368.59,30.32 C368.59,29.12 369.45,28.52 371.17,28.52 C372.97,28.52 374.03,29.4 374.35,31.16 L374.35,31.16 L386.35,30.14 C385.19,23.62 380.19,20.36 371.35,20.36 C366.63,20.36 362.99,21.25 360.43,23.03 C357.87,24.81 356.59,27.32 356.59,30.56 C356.59,33.44 357.54,35.67 359.44,37.25 C361.34,38.83 364.47,40.02 368.83,40.82 L368.83,40.82 L372.01,41.42 C372.89,41.58 373.54,41.82 373.96,42.14 C374.38,42.46 374.59,42.9 374.59,43.46 C374.59,44.1 374.36,44.56 373.9,44.84 C373.44,45.12 372.71,45.26 371.71,45.26 C370.59,45.26 369.74,45.06 369.16,44.66 C368.58,44.26 368.21,43.64 368.05,42.8 L368.05,42.8 L355.93,42.8 C356.49,50.24 361.81,53.96 371.89,53.96 Z M421,53 L421,40.16 L424.6,40.16 C436.32,40.16 442.18,35.14 442.18,25.1 C442.18,20.1 440.72,16.36 437.8,13.88 C434.88,11.4 430.46,10.16 424.54,10.16 L424.54,10.16 L407.92,10.16 L407.92,53 L421,53 Z M424.66,29.6 L421,29.6 L421,20.72 L424.66,20.72 C426.54,20.72 427.89,21.06 428.71,21.74 C429.53,22.42 429.94,23.56 429.94,25.16 C429.94,26.76 429.53,27.9 428.71,28.58 C427.89,29.26 426.54,29.6 424.66,29.6 L424.66,29.6 Z M463.315,53.96 C468.675,53.96 472.825,52.48 475.765,49.52 C478.705,46.56 480.175,42.4 480.175,37.04 C480.175,31.64 478.755,27.51 475.915,24.65 C473.075,21.79 468.975,20.36 463.615,20.36 C458.255,20.36 454.105,21.84 451.165,24.8 C448.225,27.76 446.755,31.92 446.755,37.28 C446.755,42.68 448.175,46.81 451.015,49.67 C453.855,52.53 457.955,53.96 463.315,53.96 Z M463.435,43.7 C460.875,43.7 459.595,41.52 459.595,37.16 C459.595,32.8 460.875,30.62 463.435,30.62 C464.755,30.62 465.735,31.16 466.375,32.24 C467.015,33.32 467.335,34.96 467.335,37.16 C467.335,39.36 467.015,41 466.375,42.08 C465.735,43.16 464.755,43.7 463.435,43.7 Z M499.99,53 L499.99,10.16 L487.15,10.16 L487.15,53 L499.99,53 Z M520.705,18.26 L520.705,10.16 L507.865,10.16 L507.865,18.26 L520.705,18.26 Z M520.705,53 L520.705,21.32 L507.865,21.32 L507.865,53 L520.705,53 Z M543.88,53.96 C548.48,53.96 552.08,52.8 554.68,50.48 C557.28,48.16 558.8,44.76 559.24,40.28 L559.24,40.28 L547.24,40.28 C547,42.56 545.98,43.7 544.18,43.7 C542.9,43.7 541.97,43.17 541.39,42.11 C540.81,41.05 540.52,39.38 540.52,37.1 C540.52,34.9 540.81,33.27 541.39,32.21 C541.97,31.15 542.88,30.62 544.12,30.62 C544.96,30.62 545.62,30.88 546.1,31.4 C546.58,31.92 546.9,32.72 547.06,33.8 L547.06,33.8 L558.94,32.78 C558.46,28.74 556.93,25.66 554.35,23.54 C551.77,21.42 548.3,20.36 543.94,20.36 C538.82,20.36 534.83,21.86 531.97,24.86 C529.11,27.86 527.68,32.04 527.68,37.4 C527.68,42.64 529.1,46.71 531.94,49.61 C534.78,52.51 538.76,53.96 543.88,53.96 Z M571.195,64.64 C573.235,64.64 574.945,64.31 576.325,63.65 C577.705,62.99 578.985,61.82 580.165,60.14 C581.345,58.46 582.635,55.9 584.035,52.46 L584.035,52.46 L596.575,21.32 L583.555,21.32 L579.175,36.56 L574.255,21.32 L560.815,21.32 L573.655,49.76 L573.175,51.14 C572.735,52.42 572.195,53.33 571.555,53.87 C570.915,54.41 570.055,54.68 568.975,54.68 C568.095,54.68 566.815,54.5 565.135,54.14 L565.135,54.14 L563.275,63.32 C565.675,64.2 568.315,64.64 571.195,64.64 Z" id="ersonnelisPolicy" fill="#8BFFAA"></path>
                <path d="M62.66,49.96 C67.1,49.96 70.61,49 73.19,47.08 C75.77,45.16 77.38,42.32 78.02,38.56 L78.02,38.56 L66.26,38.56 C65.78,40.28 64.52,41.14 62.48,41.14 C61.04,41.14 59.98,40.73 59.3,39.91 C58.62,39.09 58.24,37.76 58.16,35.92 L58.16,35.92 L78.2,35.92 L78.2,32.68 C78.2,27.56 76.81,23.56 74.03,20.68 C71.25,17.8 67.4,16.36 62.48,16.36 C57.36,16.36 53.35,17.88 50.45,20.92 C47.55,23.96 46.1,28.18 46.1,33.58 C46.1,38.9 47.52,42.96 50.36,45.76 C53.2,48.56 57.3,49.96 62.66,49.96 Z M66.56,29.56 L58.22,29.56 C58.42,26.56 59.9,25.06 62.66,25.06 C63.94,25.06 64.89,25.41 65.51,26.11 C66.13,26.81 66.48,27.96 66.56,29.56 L66.56,29.56 Z M98.015,49 L98.015,33.04 C98.015,30.88 98.695,29.36 100.055,28.48 C101.215,27.76 102.735,27.4 104.615,27.4 C105.775,27.4 106.975,27.52 108.215,27.76 L108.215,27.76 L109.595,17.14 C108.595,16.9 107.515,16.78 106.355,16.78 C102.635,16.78 99.735,18.12 97.655,20.8 L97.655,20.8 L97.655,17.32 L85.175,17.32 L85.175,49 L98.015,49 Z M128.63,49.96 C133.51,49.96 137.21,49.06 139.73,47.26 C142.25,45.46 143.51,42.82 143.51,39.34 C143.51,37.38 143.15,35.77 142.43,34.51 C141.71,33.25 140.49,32.19 138.77,31.33 C137.05,30.47 134.59,29.7 131.39,29.02 L131.39,29.02 L128.15,28.36 C127.11,28.16 126.38,27.9 125.96,27.58 C125.54,27.26 125.33,26.84 125.33,26.32 C125.33,25.12 126.19,24.52 127.91,24.52 C129.71,24.52 130.77,25.4 131.09,27.16 L131.09,27.16 L143.09,26.14 C141.93,19.62 136.93,16.36 128.09,16.36 C123.37,16.36 119.73,17.25 117.17,19.03 C114.61,20.81 113.33,23.32 113.33,26.56 C113.33,29.44 114.28,31.67 116.18,33.25 C118.08,34.83 121.21,36.02 125.57,36.82 L125.57,36.82 L128.75,37.42 C129.63,37.58 130.28,37.82 130.7,38.14 C131.12,38.46 131.33,38.9 131.33,39.46 C131.33,40.1 131.1,40.56 130.64,40.84 C130.18,41.12 129.45,41.26 128.45,41.26 C127.33,41.26 126.48,41.06 125.9,40.66 C125.32,40.26 124.95,39.64 124.79,38.8 L124.79,38.8 L112.67,38.8 C113.23,46.24 118.55,49.96 128.63,49.96 Z M164.645,49.96 C170.005,49.96 174.155,48.48 177.095,45.52 C180.035,42.56 181.505,38.4 181.505,33.04 C181.505,27.64 180.085,23.51 177.245,20.65 C174.405,17.79 170.305,16.36 164.945,16.36 C159.585,16.36 155.435,17.84 152.495,20.8 C149.555,23.76 148.085,27.92 148.085,33.28 C148.085,38.68 149.505,42.81 152.345,45.67 C155.185,48.53 159.285,49.96 164.645,49.96 Z M164.765,39.7 C162.205,39.7 160.925,37.52 160.925,33.16 C160.925,28.8 162.205,26.62 164.765,26.62 C166.085,26.62 167.065,27.16 167.705,28.24 C168.345,29.32 168.665,30.96 168.665,33.16 C168.665,35.36 168.345,37 167.705,38.08 C167.065,39.16 166.085,39.7 164.765,39.7 Z M201.32,49 L201.32,30.58 C201.32,29.58 201.5,28.82 201.86,28.3 C202.54,27.34 203.58,26.86 204.98,26.86 C206.66,26.86 207.5,27.9 207.5,29.98 L207.5,29.98 L207.5,49 L220.34,49 L220.34,27.64 C220.34,24.08 219.43,21.31 217.61,19.33 C215.79,17.35 213.24,16.36 209.96,16.36 C206.28,16.36 203.28,17.78 200.96,20.62 L200.96,20.62 L200.96,17.32 L188.48,17.32 L188.48,49 L201.32,49 Z M240.755,49 L240.755,30.58 C240.755,29.58 240.935,28.82 241.295,28.3 C241.975,27.34 243.015,26.86 244.415,26.86 C246.095,26.86 246.935,27.9 246.935,29.98 L246.935,29.98 L246.935,49 L259.775,49 L259.775,27.64 C259.775,24.08 258.865,21.31 257.045,19.33 C255.225,17.35 252.675,16.36 249.395,16.36 C245.715,16.36 242.715,17.78 240.395,20.62 L240.395,20.62 L240.395,17.32 L227.915,17.32 L227.915,49 L240.755,49 Z M283.01,49.96 C287.45,49.96 290.96,49 293.54,47.08 C296.12,45.16 297.73,42.32 298.37,38.56 L298.37,38.56 L286.61,38.56 C286.13,40.28 284.87,41.14 282.83,41.14 C281.39,41.14 280.33,40.73 279.65,39.91 C278.97,39.09 278.59,37.76 278.51,35.92 L278.51,35.92 L298.55,35.92 L298.55,32.68 C298.55,27.56 297.16,23.56 294.38,20.68 C291.6,17.8 287.75,16.36 282.83,16.36 C277.71,16.36 273.7,17.88 270.8,20.92 C267.9,23.96 266.45,28.18 266.45,33.58 C266.45,38.9 267.87,42.96 270.71,45.76 C273.55,48.56 277.65,49.96 283.01,49.96 Z M286.91,29.56 L278.57,29.56 C278.77,26.56 280.25,25.06 283.01,25.06 C284.29,25.06 285.24,25.41 285.86,26.11 C286.48,26.81 286.83,27.96 286.91,29.56 L286.91,29.56 Z M318.365,49 L318.365,6.16 L305.525,6.16 L305.525,49 L318.365,49 Z M353.555,14.26 L353.555,6.16 L340.715,6.16 L340.715,14.26 L353.555,14.26 Z M353.555,49 L353.555,17.32 L340.715,17.32 L340.715,49 L353.555,49 Z M375.89,49.96 C380.77,49.96 384.47,49.06 386.99,47.26 C389.51,45.46 390.77,42.82 390.77,39.34 C390.77,37.38 390.41,35.77 389.69,34.51 C388.97,33.25 387.75,32.19 386.03,31.33 C384.31,30.47 381.85,29.7 378.65,29.02 L378.65,29.02 L375.41,28.36 C374.37,28.16 373.64,27.9 373.22,27.58 C372.8,27.26 372.59,26.84 372.59,26.32 C372.59,25.12 373.45,24.52 375.17,24.52 C376.97,24.52 378.03,25.4 378.35,27.16 L378.35,27.16 L390.35,26.14 C389.19,19.62 384.19,16.36 375.35,16.36 C370.63,16.36 366.99,17.25 364.43,19.03 C361.87,20.81 360.59,23.32 360.59,26.56 C360.59,29.44 361.54,31.67 363.44,33.25 C365.34,34.83 368.47,36.02 372.83,36.82 L372.83,36.82 L376.01,37.42 C376.89,37.58 377.54,37.82 377.96,38.14 C378.38,38.46 378.59,38.9 378.59,39.46 C378.59,40.1 378.36,40.56 377.9,40.84 C377.44,41.12 376.71,41.26 375.71,41.26 C374.59,41.26 373.74,41.06 373.16,40.66 C372.58,40.26 372.21,39.64 372.05,38.8 L372.05,38.8 L359.93,38.8 C360.49,46.24 365.81,49.96 375.89,49.96 Z M425,49 L425,36.16 L428.6,36.16 C440.32,36.16 446.18,31.14 446.18,21.1 C446.18,16.1 444.72,12.36 441.8,9.88 C438.88,7.4 434.46,6.16 428.54,6.16 L428.54,6.16 L411.92,6.16 L411.92,49 L425,49 Z M428.66,25.6 L425,25.6 L425,16.72 L428.66,16.72 C430.54,16.72 431.89,17.06 432.71,17.74 C433.53,18.42 433.94,19.56 433.94,21.16 C433.94,22.76 433.53,23.9 432.71,24.58 C431.89,25.26 430.54,25.6 428.66,25.6 L428.66,25.6 Z M467.315,49.96 C472.675,49.96 476.825,48.48 479.765,45.52 C482.705,42.56 484.175,38.4 484.175,33.04 C484.175,27.64 482.755,23.51 479.915,20.65 C477.075,17.79 472.975,16.36 467.615,16.36 C462.255,16.36 458.105,17.84 455.165,20.8 C452.225,23.76 450.755,27.92 450.755,33.28 C450.755,38.68 452.175,42.81 455.015,45.67 C457.855,48.53 461.955,49.96 467.315,49.96 Z M467.435,39.7 C464.875,39.7 463.595,37.52 463.595,33.16 C463.595,28.8 464.875,26.62 467.435,26.62 C468.755,26.62 469.735,27.16 470.375,28.24 C471.015,29.32 471.335,30.96 471.335,33.16 C471.335,35.36 471.015,37 470.375,38.08 C469.735,39.16 468.755,39.7 467.435,39.7 Z M503.99,49 L503.99,6.16 L491.15,6.16 L491.15,49 L503.99,49 Z M524.705,14.26 L524.705,6.16 L511.865,6.16 L511.865,14.26 L524.705,14.26 Z M524.705,49 L524.705,17.32 L511.865,17.32 L511.865,49 L524.705,49 Z M547.88,49.96 C552.48,49.96 556.08,48.8 558.68,46.48 C561.28,44.16 562.8,40.76 563.24,36.28 L563.24,36.28 L551.24,36.28 C551,38.56 549.98,39.7 548.18,39.7 C546.9,39.7 545.97,39.17 545.39,38.11 C544.81,37.05 544.52,35.38 544.52,33.1 C544.52,30.9 544.81,29.27 545.39,28.21 C545.97,27.15 546.88,26.62 548.12,26.62 C548.96,26.62 549.62,26.88 550.1,27.4 C550.58,27.92 550.9,28.72 551.06,29.8 L551.06,29.8 L562.94,28.78 C562.46,24.74 560.93,21.66 558.35,19.54 C555.77,17.42 552.3,16.36 547.94,16.36 C542.82,16.36 538.83,17.86 535.97,20.86 C533.11,23.86 531.68,28.04 531.68,33.4 C531.68,38.64 533.1,42.71 535.94,45.61 C538.78,48.51 542.76,49.96 547.88,49.96 Z M575.195,60.64 C577.235,60.64 578.945,60.31 580.325,59.65 C581.705,58.99 582.985,57.82 584.165,56.14 C585.345,54.46 586.635,51.9 588.035,48.46 L588.035,48.46 L600.575,17.32 L587.555,17.32 L583.175,32.56 L578.255,17.32 L564.815,17.32 L577.655,45.76 L577.175,47.14 C576.735,48.42 576.195,49.33 575.555,49.87 C574.915,50.41 574.055,50.68 572.975,50.68 C572.095,50.68 570.815,50.5 569.135,50.14 L569.135,50.14 L567.275,59.32 C569.675,60.2 572.315,60.64 575.195,60.64 Z" id="ersonnelisPolicy" fill="#000000"></path>
                <g id="p-logo">
                    <polygon id="Path" fill="#8BFFAA" points="4.66098807 42 0 46.7898734 0 53 16 53 16 48.8506329 4.66098807 48.8506329"></polygon>
                    <path d="M21,32.8465815 L21,36.9807192 L23.8725314,36.9807192 C29.0184773,37.2336007 33.9518664,34.986007 37,31 C34.4579706,32.245263 31.6385481,32.8789835 28.7845601,32.8465815 L21,32.8465815 Z" id="Path" fill="#8BFFAA"></path>
                    <polygon id="Path" fill="#8BFFAA" points="5 5 0 5 0 35 5 30.3782288"></polygon>
                    <path d="M29.0593278,0 L5,0 L5,31.0835752 L21.6586223,14.2193848 L16.5653611,9.12884504 L32.1265404,9.12884504 L32.1265404,24.8270459 L27.0614187,19.7365061 L5,42.0040627 L5,49 L21.5179245,49 L21.5179245,33.6146257 L29.0593278,33.6146257 C31.855119,33.6480597 34.6170494,32.9941543 37.1072433,31.7092281 C42.3402392,28.7213868 45.3980199,22.9506231 44.9581819,16.8926291 C44.9581819,7.08125363 38.6830589,0 29.0593278,0 Z" id="Path" fill="#1500A2"></path>
                </g>
            </g>
        </g>
    </g>
</svg>